<mxfile host="app.diagrams.net" modified="2023-02-15T17:06:23.797Z" agent="5.0 (X11; Linux x86_64) AppleWebKit/537.36 (KHTML, like Gecko) Chrome/110.0.0.0 Safari/537.36" etag="X5ETxN5P6_6ke-5kNyns" version="20.8.20" type="github">
  <diagram name="Página-1" id="kiCXkl-eVupk_ZroLNsJ">
    <mxGraphModel dx="1195" dy="646" grid="1" gridSize="10" guides="1" tooltips="1" connect="1" arrows="1" fold="1" page="1" pageScale="1" pageWidth="827" pageHeight="1169" math="0" shadow="0">
      <root>
        <mxCell id="0" />
        <mxCell id="1" parent="0" />
        <mxCell id="rQLQHIbvt_KvwNL9c9PV-3" value="" style="rounded=0;whiteSpace=wrap;html=1;fillColor=#eeff00;" vertex="1" parent="1">
          <mxGeometry x="30" y="188" width="280" height="10" as="geometry" />
        </mxCell>
        <mxCell id="rQLQHIbvt_KvwNL9c9PV-2" value="" style="rounded=0;whiteSpace=wrap;html=1;fillColor=#eeff00;" vertex="1" parent="1">
          <mxGeometry x="311" y="301" width="280" height="10" as="geometry" />
        </mxCell>
        <mxCell id="rQLQHIbvt_KvwNL9c9PV-1" value="" style="rounded=0;whiteSpace=wrap;html=1;fillColor=#eeff00;" vertex="1" parent="1">
          <mxGeometry x="40" y="220" width="260" height="210" as="geometry" />
        </mxCell>
        <mxCell id="KZ9W_DSHIqvTxx3p64X--19" value="&lt;b&gt;Utilizador&lt;/b&gt;" style="shape=ext;double=1;rounded=1;whiteSpace=wrap;html=1;" parent="1" vertex="1">
          <mxGeometry x="100" y="40" width="140" height="40" as="geometry" />
        </mxCell>
        <mxCell id="KZ9W_DSHIqvTxx3p64X--20" value="&lt;b&gt;Cliente&lt;/b&gt;" style="shape=ext;double=1;rounded=1;whiteSpace=wrap;html=1;" parent="1" vertex="1">
          <mxGeometry x="390" y="40" width="120" height="40" as="geometry" />
        </mxCell>
        <mxCell id="KZ9W_DSHIqvTxx3p64X--22" value="&lt;b&gt;Técnico&lt;/b&gt;" style="shape=ext;double=1;rounded=1;whiteSpace=wrap;html=1;" parent="1" vertex="1">
          <mxGeometry x="665" y="40" width="90" height="40" as="geometry" />
        </mxCell>
        <mxCell id="KZ9W_DSHIqvTxx3p64X--23" value="&lt;div style=&quot;text-align: justify;&quot;&gt;&lt;div&gt;&lt;b&gt;&lt;u&gt;Home Screen&lt;/u&gt;&lt;/b&gt;&lt;/div&gt;&lt;ul&gt;&lt;li&gt;Obter categorias de produtos&lt;/li&gt;&lt;/ul&gt;&lt;b&gt;&lt;u&gt;Products&lt;/u&gt;&lt;/b&gt;&lt;br&gt;&lt;ul&gt;&lt;li&gt;Obter produtos da categoria&lt;/li&gt;&lt;li style=&quot;border-color: var(--border-color);&quot;&gt;Pesquisa por QR-Code&lt;/li&gt;&lt;li&gt;Obter subcategorias&lt;/li&gt;&lt;/ul&gt;&lt;b&gt;&lt;u&gt;Product&lt;/u&gt;&lt;/b&gt;&lt;br&gt;&lt;ul&gt;&lt;li&gt;Obter imagens de produto&lt;/li&gt;&lt;li&gt;Obter Documentação do produto&lt;/li&gt;&lt;ul&gt;&lt;li&gt;Aceder ao manual&lt;/li&gt;&lt;li&gt;Escolher manual da eletrónica -&amp;gt; baixar&lt;/li&gt;&lt;/ul&gt;&lt;li&gt;Pedido para aceder aos &lt;b&gt;vídeos&lt;/b&gt;&lt;/li&gt;&lt;ul&gt;&lt;li&gt;Vídeo de instalação&lt;/li&gt;&lt;li&gt;Vídeo de programação&lt;/li&gt;&lt;/ul&gt;&lt;li&gt;Pedido para aceder às &lt;b&gt;Informações&lt;/b&gt;&lt;/li&gt;&lt;ul&gt;&lt;li&gt;Informação geral&lt;/li&gt;&lt;li&gt;Desenhos técnicos&lt;/li&gt;&lt;/ul&gt;&lt;/ul&gt;&lt;/div&gt;" style="text;html=1;strokeColor=default;fillColor=none;align=left;verticalAlign=middle;whiteSpace=wrap;rounded=0;" parent="1" vertex="1">
          <mxGeometry x="55" y="90" width="230" height="350" as="geometry" />
        </mxCell>
        <mxCell id="KZ9W_DSHIqvTxx3p64X--24" value="&lt;div style=&quot;text-align: justify;&quot;&gt;&lt;div&gt;&lt;b style=&quot;border-color: var(--border-color);&quot;&gt;&lt;u style=&quot;border-color: var(--border-color);&quot;&gt;Home Screen&lt;/u&gt;&lt;/b&gt;&lt;br&gt;&lt;/div&gt;&lt;ul&gt;&lt;li style=&quot;border-color: var(--border-color);&quot;&gt;Obter informações de utilizador&lt;/li&gt;&lt;/ul&gt;&lt;b&gt;&lt;u&gt;Login Screen&lt;/u&gt;&lt;/b&gt;&lt;/div&gt;&lt;div style=&quot;text-align: justify;&quot;&gt;&lt;ul&gt;&lt;li&gt;Realizar Login&lt;/li&gt;&lt;li&gt;Esquecimento de Password&lt;/li&gt;&lt;/ul&gt;&lt;b&gt;&lt;u&gt;Register Screen&lt;/u&gt;&lt;/b&gt;&lt;/div&gt;&lt;div style=&quot;text-align: justify;&quot;&gt;&lt;ul&gt;&lt;li&gt;Realizar Registo&lt;/li&gt;&lt;/ul&gt;&lt;div&gt;&lt;u&gt;&lt;b&gt;Forum - Home Screen&lt;/b&gt;&lt;/u&gt;&lt;/div&gt;&lt;div&gt;&lt;ul&gt;&lt;li&gt;Pesquisa por QR-Code&lt;/li&gt;&lt;li&gt;Obter tópicos&lt;/li&gt;&lt;li&gt;Obter tópicos de um assunto&lt;/li&gt;&lt;/ul&gt;&lt;/div&gt;&lt;div&gt;&lt;div&gt;&lt;u&gt;&lt;b&gt;Forum - Topics Details&lt;/b&gt;&lt;/u&gt;&lt;/div&gt;&lt;/div&gt;&lt;div&gt;&lt;ul&gt;&lt;li&gt;Obter todas as respostas de um tópico&lt;/li&gt;&lt;li&gt;Gostar de um tópico&lt;/li&gt;&lt;li&gt;Adicionar uma resposta ao tópico&lt;/li&gt;&lt;li&gt;Adicionar uma resposta a outra resposta&lt;/li&gt;&lt;li&gt;Gostar de uma resposta&lt;/li&gt;&lt;/ul&gt;&lt;div&gt;&lt;u&gt;&lt;b&gt;Forum - My Topics Details&lt;/b&gt;&lt;/u&gt;&lt;/div&gt;&lt;/div&gt;&lt;div&gt;&lt;ul&gt;&lt;li style=&quot;border-color: var(--border-color);&quot;&gt;Marcar o tópico como completo&lt;/li&gt;&lt;li style=&quot;border-color: var(--border-color);&quot;&gt;Remover o tópico&lt;/li&gt;&lt;li style=&quot;border-color: var(--border-color);&quot;&gt;Alterar visibilidade do tópico&lt;/li&gt;&lt;li style=&quot;border-color: var(--border-color);&quot;&gt;Adicionar uma resposta como melhor resposta&lt;/li&gt;&lt;/ul&gt;&lt;div&gt;&lt;b&gt;&lt;u&gt;Forum - Create Topic&lt;/u&gt;&lt;/b&gt;&lt;/div&gt;&lt;div&gt;&lt;ul&gt;&lt;li&gt;Adicionar um novo tópico&lt;/li&gt;&lt;/ul&gt;&lt;/div&gt;&lt;div&gt;&lt;br&gt;&lt;/div&gt;&lt;/div&gt;&lt;/div&gt;" style="text;html=1;strokeColor=default;fillColor=none;align=left;verticalAlign=middle;whiteSpace=wrap;rounded=0;" parent="1" vertex="1">
          <mxGeometry x="320" y="90" width="260" height="560" as="geometry" />
        </mxCell>
        <mxCell id="KZ9W_DSHIqvTxx3p64X--25" value="&lt;div style=&quot;text-align: justify;&quot;&gt;&lt;b&gt;&lt;u&gt;Forum - Topics&lt;/u&gt;&lt;/b&gt;&lt;/div&gt;&lt;div style=&quot;text-align: justify;&quot;&gt;&lt;ul&gt;&lt;li&gt;Obter tópicos privados&lt;/li&gt;&lt;/ul&gt;&lt;/div&gt;" style="text;html=1;strokeColor=default;fillColor=none;align=left;verticalAlign=middle;whiteSpace=wrap;rounded=0;" parent="1" vertex="1">
          <mxGeometry x="610" y="90" width="200" height="80" as="geometry" />
        </mxCell>
        <mxCell id="rQLQHIbvt_KvwNL9c9PV-4" value="" style="rounded=1;whiteSpace=wrap;html=1;fillColor=#d5e8d4;strokeColor=#82b366;arcSize=3;" vertex="1" parent="1">
          <mxGeometry x="18" y="680" width="692" height="550" as="geometry" />
        </mxCell>
        <mxCell id="rQLQHIbvt_KvwNL9c9PV-5" value="&lt;font style=&quot;font-size: 19px;&quot;&gt;Serviços&lt;/font&gt;" style="text;html=1;strokeColor=none;fillColor=none;align=center;verticalAlign=middle;whiteSpace=wrap;rounded=0;" vertex="1" parent="1">
          <mxGeometry x="31" y="690" width="75" height="30" as="geometry" />
        </mxCell>
        <mxCell id="rQLQHIbvt_KvwNL9c9PV-6" value="" style="rounded=1;whiteSpace=wrap;html=1;fontSize=19;arcSize=4;fillColor=#fff2cc;strokeColor=#d6b656;" vertex="1" parent="1">
          <mxGeometry x="30" y="730" width="670" height="490" as="geometry" />
        </mxCell>
        <mxCell id="rQLQHIbvt_KvwNL9c9PV-7" value="Utilizador" style="text;html=1;strokeColor=none;fillColor=none;align=center;verticalAlign=middle;whiteSpace=wrap;rounded=0;fontSize=19;" vertex="1" parent="1">
          <mxGeometry x="43" y="741" width="90" height="30" as="geometry" />
        </mxCell>
        <mxCell id="rQLQHIbvt_KvwNL9c9PV-8" value="&lt;h1 style=&quot;font-size: 15px;&quot;&gt;&lt;ul style=&quot;font-size: 15px;&quot;&gt;&lt;li style=&quot;border-color: var(--border-color); font-size: 15px;&quot;&gt;&lt;font style=&quot;font-size: 15px;&quot;&gt;Obter categorias de produtos&lt;/font&gt;&lt;/li&gt;&lt;li style=&quot;border-color: var(--border-color);&quot;&gt;Obter produtos da categoria&lt;/li&gt;&lt;li style=&quot;border-color: var(--border-color);&quot;&gt;Pesquisa por QR-Code&lt;/li&gt;&lt;li style=&quot;border-color: var(--border-color);&quot;&gt;Obter subcategorias&lt;/li&gt;&lt;/ul&gt;&lt;/h1&gt;" style="text;html=1;strokeColor=none;fillColor=none;spacing=5;spacingTop=-20;whiteSpace=wrap;overflow=hidden;rounded=0;fontSize=15;fontStyle=0" vertex="1" parent="1">
          <mxGeometry x="30" y="770" width="280" height="90" as="geometry" />
        </mxCell>
        <mxCell id="rQLQHIbvt_KvwNL9c9PV-9" value="" style="rounded=1;whiteSpace=wrap;html=1;fontSize=19;arcSize=3;fillColor=#ffe6cc;strokeColor=#d79b00;" vertex="1" parent="1">
          <mxGeometry x="344" y="741" width="345" height="465" as="geometry" />
        </mxCell>
        <mxCell id="rQLQHIbvt_KvwNL9c9PV-10" value="Cliente" style="text;html=1;strokeColor=none;fillColor=none;align=center;verticalAlign=middle;whiteSpace=wrap;rounded=0;fontSize=19;" vertex="1" parent="1">
          <mxGeometry x="340" y="742" width="90" height="30" as="geometry" />
        </mxCell>
        <mxCell id="rQLQHIbvt_KvwNL9c9PV-11" value="&lt;h1 style=&quot;font-size: 15px;&quot;&gt;&lt;ul style=&quot;font-size: 15px;&quot;&gt;&lt;li style=&quot;border-color: var(--border-color); font-size: 15px;&quot;&gt;Obter informações de utilizador&lt;br&gt;&lt;/li&gt;&lt;li style=&quot;border-color: var(--border-color);&quot;&gt;Realizar Login&lt;/li&gt;&lt;li style=&quot;border-color: var(--border-color);&quot;&gt;Esquecimento de Password&lt;/li&gt;&lt;li style=&quot;border-color: var(--border-color);&quot;&gt;Realizar Registo&lt;/li&gt;&lt;li style=&quot;border-color: var(--border-color);&quot;&gt;Pesquisa por QR-Code&lt;/li&gt;&lt;li style=&quot;border-color: var(--border-color);&quot;&gt;Obter tópicos&lt;/li&gt;&lt;li style=&quot;border-color: var(--border-color);&quot;&gt;Obter tópicos de um assunto&lt;/li&gt;&lt;li style=&quot;border-color: var(--border-color);&quot;&gt;Obter todas as respostas de um tópico&lt;/li&gt;&lt;li style=&quot;border-color: var(--border-color);&quot;&gt;Gostar de um tópico&lt;/li&gt;&lt;li style=&quot;border-color: var(--border-color);&quot;&gt;Adicionar uma resposta ao tópico&lt;/li&gt;&lt;li style=&quot;border-color: var(--border-color);&quot;&gt;Adicionar uma resposta a outra resposta&lt;/li&gt;&lt;li style=&quot;border-color: var(--border-color);&quot;&gt;Gostar de uma resposta&lt;/li&gt;&lt;li style=&quot;border-color: var(--border-color);&quot;&gt;Marcar o tópico como completo&lt;/li&gt;&lt;li style=&quot;border-color: var(--border-color);&quot;&gt;Remover o tópico&lt;/li&gt;&lt;li style=&quot;border-color: var(--border-color);&quot;&gt;Alterar visibilidade do tópico&lt;/li&gt;&lt;li style=&quot;border-color: var(--border-color);&quot;&gt;Adicionar uma resposta como melhor resposta&lt;/li&gt;&lt;li style=&quot;border-color: var(--border-color);&quot;&gt;Adicionar um novo tópico&lt;/li&gt;&lt;/ul&gt;&lt;/h1&gt;" style="text;html=1;strokeColor=none;fillColor=none;spacing=5;spacingTop=-20;whiteSpace=wrap;overflow=hidden;rounded=0;fontSize=15;fontStyle=0" vertex="1" parent="1">
          <mxGeometry x="340" y="771" width="340" height="330" as="geometry" />
        </mxCell>
        <mxCell id="rQLQHIbvt_KvwNL9c9PV-12" value="" style="rounded=1;whiteSpace=wrap;html=1;fontSize=19;arcSize=8;fillColor=#f8cecc;strokeColor=#b85450;" vertex="1" parent="1">
          <mxGeometry x="364" y="1116" width="247" height="78" as="geometry" />
        </mxCell>
        <mxCell id="rQLQHIbvt_KvwNL9c9PV-13" value="Técnico" style="text;html=1;strokeColor=none;fillColor=none;align=center;verticalAlign=middle;whiteSpace=wrap;rounded=0;fontSize=19;" vertex="1" parent="1">
          <mxGeometry x="364" y="1126" width="90" height="30" as="geometry" />
        </mxCell>
        <mxCell id="rQLQHIbvt_KvwNL9c9PV-14" value="&lt;h1 style=&quot;font-size: 15px;&quot;&gt;&lt;ul style=&quot;font-size: 15px;&quot;&gt;&lt;li style=&quot;border-color: var(--border-color); font-size: 15px;&quot;&gt;Obter Tópicos Privados&lt;/li&gt;&lt;/ul&gt;&lt;/h1&gt;" style="text;html=1;strokeColor=none;fillColor=none;spacing=5;spacingTop=-20;whiteSpace=wrap;overflow=hidden;rounded=0;fontSize=15;fontStyle=0" vertex="1" parent="1">
          <mxGeometry x="360" y="1156" width="232" height="30" as="geometry" />
        </mxCell>
      </root>
    </mxGraphModel>
  </diagram>
</mxfile>
